<?xml version="1.0" encoding="utf-8"?>
<!-- Generator: Adobe Illustrator 19.2.1, SVG Export Plug-In . SVG Version: 6.00 Build 0)  -->
<svg version="1.1" id="Layer_1" xmlns="http://www.w3.org/2000/svg"  x="0px" y="0px"
	 viewBox="0 0 24 24" style="enable-background:new 0 0 24 24;" xml:space="preserve">
<style type="text/css">
	.st0{fill:#7D8FF9;stroke:#253CAF;stroke-linecap:round;stroke-linejoin:round;stroke-miterlimit:10;}
	.st1{fill:#FFFFFF;}
	.st2{fill:#7D8FF9;stroke:#7D8FF9;stroke-linecap:round;stroke-linejoin:round;stroke-miterlimit:10;}
	.st3{fill:none;stroke:#253CAF;stroke-linecap:round;stroke-linejoin:round;stroke-miterlimit:10;}
	.st4{fill:#7D8FF9;}
	.st5{fill:none;stroke:#7D8FF9;stroke-linecap:round;stroke-linejoin:round;}
	.st6{fill:none;stroke:#7D8FF9;stroke-linecap:round;stroke-linejoin:round;stroke-dasharray:0.9333,0.9333;}
</style>
<path class="st0" d="M14.2,3.1c-0.4,0.7-1.2,1.2-2.2,1.2s-1.8-0.5-2.2-1.2H0.6v17.4h9c0,1.2,1.1,2.2,2.4,2.2s2.4-1,2.4-2.2h9V3.1
	H14.2z"/>
<path class="st1" d="M13.9,5.1C13.5,5.7,12.8,6,12,6s-1.5-0.4-1.9-0.9h-8v12.8h7.8c0,0.9,0.9,1.6,2.1,1.6s2.1-0.7,2.1-1.6h7.8V5.1
	H13.9z"/>
<line class="st2" x1="12" y1="6.6" x2="12" y2="17.7"/>
<path class="st3" d="M13.9,5.1C13.5,5.7,12.8,6,12,6s-1.5-0.4-1.9-0.9h-8v12.8h7.8c0,0.9,0.9,1.6,2.1,1.6s2.1-0.7,2.1-1.6h7.8V5.1
	H13.9z"/>
<g>
	<g>
		<g>
			<line class="st4" x1="3.9" y1="8.3" x2="9.6" y2="8.3"/>
			<g>
				<line class="st5" x1="3.9" y1="8.3" x2="4.4" y2="8.3"/>
				<line class="st6" x1="5.3" y1="8.3" x2="8.6" y2="8.3"/>
				<line class="st5" x1="9.1" y1="8.3" x2="9.6" y2="8.3"/>
			</g>
		</g>
		<g>
			<line class="st4" x1="3.9" y1="11.3" x2="9.6" y2="11.3"/>
			<g>
				<line class="st5" x1="3.9" y1="11.3" x2="4.4" y2="11.3"/>
				<line class="st6" x1="5.3" y1="11.3" x2="8.6" y2="11.3"/>
				<line class="st5" x1="9.1" y1="11.3" x2="9.6" y2="11.3"/>
			</g>
		</g>
		<g>
			<line class="st4" x1="3.9" y1="14.3" x2="9.6" y2="14.3"/>
			<g>
				<line class="st5" x1="3.9" y1="14.3" x2="4.4" y2="14.3"/>
				<line class="st6" x1="5.3" y1="14.3" x2="8.6" y2="14.3"/>
				<line class="st5" x1="9.1" y1="14.3" x2="9.6" y2="14.3"/>
			</g>
		</g>
	</g>
	<g>
		<g>
			<line class="st4" x1="14.4" y1="8.3" x2="20.1" y2="8.3"/>
			<g>
				<line class="st5" x1="14.4" y1="8.3" x2="14.9" y2="8.3"/>
				<line class="st6" x1="15.9" y1="8.3" x2="19.1" y2="8.3"/>
				<line class="st5" x1="19.6" y1="8.3" x2="20.1" y2="8.3"/>
			</g>
		</g>
		<g>
			<line class="st4" x1="14.4" y1="11.3" x2="20.1" y2="11.3"/>
			<g>
				<line class="st5" x1="14.4" y1="11.3" x2="14.9" y2="11.3"/>
				<line class="st6" x1="15.9" y1="11.3" x2="19.1" y2="11.3"/>
				<line class="st5" x1="19.6" y1="11.3" x2="20.1" y2="11.3"/>
			</g>
		</g>
		<g>
			<line class="st4" x1="14.4" y1="14.3" x2="20.1" y2="14.3"/>
			<g>
				<line class="st5" x1="14.4" y1="14.3" x2="14.9" y2="14.3"/>
				<line class="st6" x1="15.9" y1="14.3" x2="19.1" y2="14.3"/>
				<line class="st5" x1="19.6" y1="14.3" x2="20.1" y2="14.3"/>
			</g>
		</g>
	</g>
</g>
</svg>
