<?xml version="1.0" encoding="utf-8"?>
<!-- Generator: Adobe Illustrator 19.2.1, SVG Export Plug-In . SVG Version: 6.00 Build 0)  -->
<svg version="1.1" id="Layer_1" xmlns="http://www.w3.org/2000/svg"  x="0px" y="0px"
	 viewBox="0 0 24 24" style="enable-background:new 0 0 24 24;" xml:space="preserve">
<style type="text/css">
	.st0{fill:#CCD9E6;stroke:#616C77;stroke-miterlimit:10;}
	.st1{fill:#CEDCF1;}
	.st2{fill:none;stroke:#89AFAD;stroke-miterlimit:10;}
	.st3{fill:none;}
	.st4{fill-rule:evenodd;clip-rule:evenodd;fill:#637C8A;}
	.st5{fill:#616C77;}
	.st6{fill:#FFE591;stroke:#9B782C;stroke-miterlimit:10;}
</style>
<g>
	<polygon class="st0" points="17.5,6 17.5,0.9 6.5,0.9 6.5,6 0.9,6 0.9,18.9 23.1,18.9 23.1,6 	"/>
	<g>
		<path class="st1" d="M2.3,12.1"/>
		<g>
			<path class="st2" d="M2.3,12.1"/>
		</g>
	</g>
	<g>
		<line class="st1" x1="7.8" y1="5.6" x2="16" y2="5.6"/>
		<g>
			<g>
				<g>
					<g>
						<rect x="7.8" y="-1.9" class="st3" width="8.1" height="15"/>
					</g>
					<rect x="13.8" y="5" class="st4" width="1.5" height="1.5"/>
					<rect x="11.1" y="5" class="st4" width="1.5" height="1.5"/>
					<rect x="8.4" y="5" class="st4" width="1.5" height="1.5"/>
				</g>
			</g>
		</g>
	</g>
	<g>
		<g>
			<line class="st1" x1="7.8" y1="8.6" x2="16" y2="8.6"/>
			<g>
				<g>
					<g>
						<g>
							<rect x="7.8" y="1.1" class="st3" width="8.1" height="15"/>
						</g>
						<rect x="13.8" y="8" class="st4" width="1.5" height="1.5"/>
						<rect x="11.1" y="8" class="st4" width="1.5" height="1.5"/>
						<rect x="8.4" y="8" class="st4" width="1.5" height="1.5"/>
					</g>
				</g>
			</g>
		</g>
		<g>
			<line class="st1" x1="2.3" y1="8.6" x2="10.5" y2="8.6"/>
			<g>
				<g>
					<g>
						<g>
							<rect x="2.3" y="1.1" class="st3" width="8.1" height="15"/>
						</g>
						<rect x="8.4" y="8" class="st4" width="1.5" height="1.5"/>
						<rect x="5.7" y="8" class="st4" width="1.5" height="1.5"/>
						<rect x="3" y="8" class="st4" width="1.5" height="1.5"/>
					</g>
				</g>
			</g>
		</g>
		<g>
			<line class="st1" x1="13.3" y1="8.6" x2="21.4" y2="8.6"/>
			<g>
				<g>
					<g>
						<g>
							<rect x="13.3" y="1.1" class="st3" width="8.1" height="15"/>
						</g>
						<rect x="19.3" y="8" class="st4" width="1.5" height="1.5"/>
						<rect x="16.6" y="8" class="st4" width="1.5" height="1.5"/>
						<rect x="13.9" y="8" class="st4" width="1.5" height="1.5"/>
					</g>
				</g>
			</g>
		</g>
	</g>
	<g>
		<line class="st1" x1="7.8" y1="2.6" x2="16" y2="2.6"/>
		<g>
			<g>
				<g>
					<g>
						<rect x="7.8" y="-4.9" class="st3" width="8.1" height="15"/>
					</g>
					<rect x="13.8" y="2" class="st4" width="1.5" height="1.5"/>
					<rect x="11.1" y="2" class="st4" width="1.5" height="1.5"/>
					<rect x="8.4" y="2" class="st4" width="1.5" height="1.5"/>
				</g>
			</g>
		</g>
	</g>
	<g>
		<g>
			<line class="st1" x1="7.8" y1="11.6" x2="16" y2="11.6"/>
			<g>
				<g>
					<g>
						<g>
							<rect x="7.8" y="4.1" class="st3" width="8.1" height="15"/>
						</g>
						<rect x="13.8" y="11" class="st4" width="1.5" height="1.5"/>
						<rect x="11.1" y="11" class="st4" width="1.5" height="1.5"/>
						<rect x="8.4" y="11" class="st4" width="1.5" height="1.5"/>
					</g>
				</g>
			</g>
		</g>
		<g>
			<line class="st1" x1="2.3" y1="11.6" x2="10.5" y2="11.6"/>
			<g>
				<g>
					<g>
						<g>
							<rect x="2.3" y="4.1" class="st3" width="8.1" height="15"/>
						</g>
						<rect x="8.4" y="11" class="st4" width="1.5" height="1.5"/>
						<rect x="5.7" y="11" class="st4" width="1.5" height="1.5"/>
						<rect x="3" y="11" class="st4" width="1.5" height="1.5"/>
					</g>
				</g>
			</g>
		</g>
		<g>
			<line class="st1" x1="13.3" y1="11.6" x2="21.4" y2="11.6"/>
			<g>
				<g>
					<g>
						<g>
							<rect x="13.3" y="4.1" class="st3" width="8.1" height="15"/>
						</g>
						<rect x="19.3" y="11" class="st4" width="1.5" height="1.5"/>
						<rect x="16.6" y="11" class="st4" width="1.5" height="1.5"/>
						<rect x="13.9" y="11" class="st4" width="1.5" height="1.5"/>
					</g>
				</g>
			</g>
		</g>
	</g>
	<g>
		<g>
			<line class="st5" x1="7.8" y1="14.6" x2="16" y2="14.6"/>
			<g>
				<g>
					<g>
						<g>
							<rect x="7.8" y="7.1" class="st3" width="8.1" height="15"/>
						</g>
						<rect x="13.8" y="14" class="st4" width="1.5" height="1.5"/>
						<rect x="11.1" y="14" class="st4" width="1.5" height="1.5"/>
						<rect x="8.4" y="14" class="st4" width="1.5" height="1.5"/>
					</g>
				</g>
			</g>
		</g>
		<g>
			<line class="st5" x1="2.3" y1="14.6" x2="10.5" y2="14.6"/>
			<g>
				<g>
					<g>
						<g>
							<rect x="2.3" y="7.1" class="st3" width="8.1" height="15"/>
						</g>
						<rect x="8.4" y="14" class="st4" width="1.5" height="1.5"/>
						<rect x="5.7" y="14" class="st4" width="1.5" height="1.5"/>
						<rect x="3" y="14" class="st4" width="1.5" height="1.5"/>
					</g>
				</g>
			</g>
		</g>
		<g>
			<line class="st5" x1="13.3" y1="14.6" x2="21.4" y2="14.6"/>
			<g>
				<g>
					<g>
						<g>
							<rect x="13.3" y="7.1" class="st3" width="8.1" height="15"/>
						</g>
						<rect x="19.3" y="14" class="st4" width="1.5" height="1.5"/>
						<rect x="16.6" y="14" class="st4" width="1.5" height="1.5"/>
						<rect x="13.9" y="14" class="st4" width="1.5" height="1.5"/>
					</g>
				</g>
			</g>
		</g>
	</g>
</g>
<path class="st6" d="M7.8,23.1l10.3-6.9l0,0c1.2,0.3,2.4,0.2,3.5-0.5c1.9-1.3,2.4-3.9,1.1-5.8s-3.9-2.4-5.8-1.1s-2.4,3.9-1.1,5.8
	l-3.9,2.6l-2.9-2.7l-2.2,0.8l2.2,2.2l-1.6,1.1l-2.4-2.7l-2.1,0.7L7.8,23.1z M18.6,11.3c0.6-0.4,1.3-0.3,1.6,0.3
	c0.4,0.6,0.3,1.3-0.3,1.6s-1.3,0.3-1.6-0.3S18.1,11.6,18.6,11.3z"/>
</svg>
