<?xml version="1.0" encoding="utf-8"?>
<!-- Generator: Adobe Illustrator 19.2.1, SVG Export Plug-In . SVG Version: 6.00 Build 0)  -->
<svg version="1.1" id="Layer_1" xmlns="http://www.w3.org/2000/svg" xmlns:xlink="http://www.w3.org/1999/xlink" x="0px" y="0px"
	 viewBox="0 0 24 24" style="enable-background:new 0 0 24 24;" xml:space="preserve">
<style type="text/css">
	.st0{fill:#FFFFFF;stroke:#CCE7FF;stroke-linecap:round;stroke-linejoin:round;}
	.st1{fill:none;stroke:#CCE7FF;stroke-linecap:round;stroke-linejoin:round;}
	.st2{fill:#CCE7FF;stroke:#99CFFF;stroke-linecap:round;stroke-linejoin:round;}
	.st3{fill:none;stroke:#99CFFF;stroke-linecap:round;stroke-linejoin:round;}
	.st4{fill:#99CFFF;stroke:#45A6FC;stroke-linecap:round;stroke-linejoin:round;}
	.st5{fill:#CCE7FF;stroke:#45A6FC;stroke-linejoin:round;stroke-miterlimit:10;}
	.st6{fill:none;stroke:#45A6FC;stroke-linecap:round;stroke-linejoin:round;stroke-miterlimit:10;}
</style>
<g>
	<g>
		<path class="st0" d="M14.2,14.1h-13V0.7h11.3c0.9,0,1.8,0.8,1.8,1.8L14.2,14.1L14.2,14.1z"/>
		<rect x="3.7" y="2.1" class="st0" width="7.8" height="3.2"/>
		<rect x="3.7" y="9.5" class="st0" width="7.8" height="2.2"/>
		<line class="st1" x1="5.1" y1="2.8" x2="5.1" y2="4.5"/>
	</g>
	<g>
		<path class="st2" d="M18.4,18.4h-13V5h11.3c0.9,0,1.8,0.8,1.8,1.8L18.4,18.4L18.4,18.4z"/>
		<rect x="8" y="6.4" class="st2" width="7.8" height="3.2"/>
		<rect x="8" y="13.8" class="st2" width="7.8" height="2.2"/>
		<line class="st3" x1="9.4" y1="7.1" x2="9.4" y2="8.8"/>
	</g>
	<g>
		<path class="st4" d="M22.8,23.3h-13V10h11.3c0.9,0,1.8,0.8,1.8,1.8L22.8,23.3L22.8,23.3z"/>
		<rect x="12.4" y="11.3" class="st5" width="7.8" height="3.2"/>
		<rect x="12.4" y="18.7" class="st5" width="7.8" height="2.2"/>
		<line class="st6" x1="13.8" y1="12.1" x2="13.8" y2="13.8"/>
	</g>
</g>
</svg>
