<?xml version="1.0" encoding="utf-8"?>
<!-- Generator: Adobe Illustrator 19.2.1, SVG Export Plug-In . SVG Version: 6.00 Build 0)  -->
<svg version="1.1" id="Layer_1" xmlns="http://www.w3.org/2000/svg" xmlns:xlink="http://www.w3.org/1999/xlink" x="0px" y="0px"
	 viewBox="0 0 24 24" style="enable-background:new 0 0 24 24;" xml:space="preserve">
<style type="text/css">
	.st0{fill:#9FB2E2;}
	.st1{fill:#5878BA;}
	.st2{fill:none;stroke:#FFFFFF;stroke-width:2;stroke-linecap:round;stroke-linejoin:round;stroke-miterlimit:10;}
</style>
<g>
	<path class="st0" d="M12,23C6,23,1,18.1,1,12S6,1.1,12,1.1S23,6,23,12S18,23,12,23z"/>
	<g>
		<path class="st1" d="M12,2.1c5.5,0,10,4.5,10,9.9s-4.5,10-10,10S2,17.5,2,12S6.5,2.1,12,2.1 M12,0.1C5.4,0.1,0,5.4,0,12
			s5.4,12,12,12s12-5.3,12-11.9S18.6,0.1,12,0.1L12,0.1z"/>
	</g>
</g>
<line class="st2" x1="14.7" y1="19.1" x2="9.4" y2="19.1"/>
<path class="st2" d="M12.1,19c0-1.3,0-7.9,0-9.2h-1.9"/>
<circle class="st2" cx="12.1" cy="5.7" r="0.9"/>
</svg>
