<?xml version="1.0" encoding="utf-8"?>
<!-- Generator: Adobe Illustrator 19.2.1, SVG Export Plug-In . SVG Version: 6.00 Build 0)  -->
<svg version="1.1" id="Layer_1" xmlns="http://www.w3.org/2000/svg"  x="0px" y="0px"
	 viewBox="0 0 24 24" style="enable-background:new 0 0 24 24;" xml:space="preserve">
<style type="text/css">
	.st0{fill:#FFE591;stroke:#FFCF38;stroke-miterlimit:10;}
	.st1{fill:#00CC99;stroke:#128463;stroke-miterlimit:10;}
</style>
<path class="st0" d="M20.8,22.8H3.2c-0.5,0-0.8-0.4-0.8-0.8V4.3c0-0.5,0.4-0.8,0.8-0.8h17.6c0.5,0,0.8,0.4,0.8,0.8V22
	C21.6,22.4,21.3,22.8,20.8,22.8z"/>
<polygon class="st1" points="11.1,5.4 7.8,5.4 7.8,2.1 4.4,2.1 4.4,5.4 1,5.4 1,8.8 4.4,8.8 4.4,12.1 7.8,12.1 7.8,8.8 11.1,8.8 "/>
<polyline class="st0" points="21.6,19.4 21.6,22.8 2.4,22.8 2.4,19.4 "/>
</svg>
