<?xml version="1.0" encoding="utf-8"?>
<!-- Generator: Adobe Illustrator 19.2.1, SVG Export Plug-In . SVG Version: 6.00 Build 0)  -->
<svg version="1.1" id="Layer_1" xmlns="http://www.w3.org/2000/svg"  x="0px" y="0px"
	 viewBox="0 0 24 24" style="enable-background:new 0 0 24 24;" xml:space="preserve">
<style type="text/css">
	.st0{fill:#CCD9E6;stroke:#616C77;stroke-linejoin:round;stroke-miterlimit:10;}
	.st1{fill:#FFE591;stroke:#FFCF38;stroke-miterlimit:10;}
</style>
<path class="st0" d="M22.3,22.6H4.9V5.7h9v-3H19l1,3c0.8,0,1.5,0,2.3,0V22.6z"/>
<path class="st1" d="M18.9,6.9H18c-0.1-0.4-0.3-0.8-0.5-1.2l0.6-0.6c0.3-0.3,0.3-0.8,0-1.1l-1.4-1.4c-0.3-0.3-0.8-0.3-1.1,0
	l-0.5,0.5c-0.4-0.2-0.9-0.4-1.3-0.6V1.8C13.8,1.4,13.4,1,13,1h-2c-0.4,0-0.8,0.4-0.8,0.8v0.7C9.8,2.7,9.3,2.9,8.9,3.1L8.4,2.6
	c-0.3-0.3-0.8-0.3-1.1,0L5.9,3.9C5.6,4.2,5.6,4.7,5.9,5l0.6,0.6C6.3,6.1,6.1,6.5,6,6.9H5.1c-0.4,0-0.8,0.4-0.8,0.8v2
	c0,0.4,0.4,0.8,0.8,0.8h1.1c0.1,0.4,0.3,0.7,0.5,1.1l-0.8,0.8c-0.3,0.3-0.3,0.8,0,1.1l1.4,1.4c0.3,0.3,0.8,0.3,1.1,0L9.3,14
	c0.3,0.2,0.6,0.3,1,0.4v1.2c0,0.4,0.4,0.8,0.8,0.8h2c0.4,0,0.8-0.4,0.8-0.8v-1.2c0.3-0.1,0.7-0.2,1-0.4l0.9,0.9
	c0.3,0.3,0.8,0.3,1.1,0l1.4-1.4c0.3-0.3,0.3-0.8,0-1.1l-0.8-0.8c0.2-0.3,0.4-0.7,0.5-1.1h1.1c0.4,0,0.8-0.4,0.8-0.8v-2
	C19.7,7.3,19.3,6.9,18.9,6.9z M12,10.7c-1.3,0-2.3-1-2.3-2.3s1-2.3,2.3-2.3s2.3,1,2.3,2.3S13.3,10.7,12,10.7z"/>
<polygon class="st0" points="22.3,22.6 2.9,22.6 1,13.2 20.4,15.8 "/>
</svg>
