<svg id="Layer_1" data-name="Layer 1" xmlns="http://www.w3.org/2000/svg" viewBox="0 0 23.15 23.39"><defs><style>.cls-1{fill:#cce7ff;stroke:#99cfff;}.cls-1,.cls-2,.cls-3{stroke-linecap:round;stroke-linejoin:round;}.cls-2{fill:#0c9;stroke:#128463;}.cls-3{fill:#128463;stroke:#fff;}</style></defs><title>ScriptAdd</title><path class="cls-1" d="M19.68,6.62L6.17,5.33,6.58,0.85l13.51,1.3a2.64,2.64,0,0,1,1,2.45A2.57,2.57,0,0,1,19.68,6.62Z" transform="translate(-0.4 -0.28)"/><path class="cls-1" d="M1.84,21.8a5,5,0,0,0,1.5-1.17c1.21-1.41,1.53-3.48.6-10.61C3.38,5.74,2.89,3.6,4.25,2A4.39,4.39,0,0,1,5.83.78L20.08,2.15A2.76,2.76,0,0,0,19,2.63c-1.65,1.24-1.21,4.13-.78,8.75C19,20,18.53,22.15,17.3,22.88a2.26,2.26,0,0,1-1.22.29Z" transform="translate(-0.4 -0.28)"/><path class="cls-1" d="M16.08,23.17L1.84,21.8a2.81,2.81,0,0,1,.41-4.49l14.24,1.37A2.52,2.52,0,0,0,16.08,23.17Z" transform="translate(-0.4 -0.28)"/><circle class="cls-2" cx="17.94" cy="15.85" r="4.71"/><line class="cls-3" x1="17.94" y1="13.47" x2="17.94" y2="18.22"/><line class="cls-3" x1="20.38" y1="15.85" x2="15.5" y2="15.85"/></svg>