<?xml version="1.0" encoding="UTF-8" standalone="no"?>
<svg
   xmlns:dc="http://purl.org/dc/elements/1.1/"
   xmlns:cc="http://creativecommons.org/ns#"
   xmlns:rdf="http://www.w3.org/1999/02/22-rdf-syntax-ns#"
   xmlns:svg="http://www.w3.org/2000/svg"
   xmlns="http://www.w3.org/2000/svg"
   xml:space="preserve"
   style="enable-background:new 0 0 24 24;"
   viewBox="0 0 24 24"
   y="0px"
   x="0px"
   id="Layer_1"
   version="1.1"><metadata
     id="metadata31"><rdf:RDF><cc:Work
         rdf:about=""><dc:format>image/svg+xml</dc:format><dc:type
           rdf:resource="http://purl.org/dc/dcmitype/StillImage" /><dc:title></dc:title></cc:Work></rdf:RDF></metadata><defs
     id="defs29" /><style
     id="style3"
     type="text/css">
	.st0{fill:#E7EEFA;stroke:#7E98B7;stroke-miterlimit:10;}
	.st1{fill:#00CC99;stroke:#128463;stroke-miterlimit:10;}
	.st2{fill:none;stroke:#128463;stroke-miterlimit:10;stroke-dasharray:3,3;}
</style><rect
     style="stroke:#b7897e;stroke-opacity:1;fill:#faebe7;fill-opacity:1"
     id="rect5"
     height="22.7"
     width="22.3"
     class="st0"
     y="0.6"
     x="0.7" /><line
     id="line7"
     y2="0.6"
     x2="21"
     y1="0.6"
     x1="2.6"
     class="st0" /><line
     style="stroke:#b7897e;stroke-opacity:1"
     id="line9"
     y2="23.3"
     x2="6.2"
     y1="0.6"
     x1="6.2"
     class="st0" /><line
     style="stroke:#b7897e;stroke-opacity:1"
     id="line11"
     y2="0.6"
     x2="23"
     y1="0.6"
     x1="0.7"
     class="st0" /><line
     style="stroke:#b7897e;stroke-opacity:1"
     id="line13"
     y2="5.6"
     x2="23"
     y1="5.6"
     x1="0.7"
     class="st0" /><line
     style="stroke:#b7897e;stroke-opacity:1"
     id="line15"
     y2="9.2"
     x2="23"
     y1="9.2"
     x1="0.7"
     class="st0" /><line
     style="stroke:#b7897e;stroke-opacity:1"
     id="line17"
     y2="12.7"
     x2="23"
     y1="12.7"
     x1="0.7"
     class="st0" /><line
     style="stroke:#b7897e;stroke-opacity:1"
     id="line19"
     y2="16.3"
     x2="23"
     y1="16.3"
     x1="0.7"
     class="st0" /><line
     style="stroke:#b7897e;stroke-opacity:1"
     id="line21"
     y2="19.9"
     x2="23"
     y1="19.9"
     x1="0.7"
     class="st0" /><path
     id="path23"
     d="M2.9,3.1"
     class="st1" /><line
     style="stroke:#844912;stroke-opacity:1"
     id="line25"
     y2="3.1"
     x2="18.9"
     y1="3.1"
     x1="1.9"
     class="st2" /><style
     type="text/css"
     id="style4286">
	.st0{fill:#FFFFFF;stroke:#84899F;stroke-linejoin:round;stroke-miterlimit:10;}
	.st1{fill:#D1D3E2;stroke:#84899F;stroke-miterlimit:10;}
	.st2{fill:#D1D3E2;}
	.st3{fill:none;stroke:#637078;stroke-width:1.3;stroke-linecap:round;stroke-linejoin:round;stroke-miterlimit:10;}
</style><style
     type="text/css"
     id="style4443">
	.st0{fill:#FFFFFF;stroke:#253CAF;stroke-linecap:round;stroke-linejoin:round;stroke-miterlimit:10;}
	.st1{fill:#7D8FF9;stroke:#253CAF;stroke-linecap:round;stroke-linejoin:round;stroke-miterlimit:10;}
	.st2{fill:none;stroke:#818896;stroke-width:1.5;stroke-linecap:round;stroke-linejoin:round;stroke-miterlimit:10;}
	.st3{fill:none;stroke:#C7CED8;stroke-width:1.5;stroke-linecap:round;stroke-linejoin:round;stroke-miterlimit:10;}
</style><g
     transform="translate(-1.040338,-0.12631765)"
     id="g4480"><g
       id="g4453"><g
         id="g4455"><path
           style="fill:none;stroke:#818896;stroke-width:1.5;stroke-linecap:round;stroke-linejoin:round;stroke-miterlimit:10"
           class="st2"
           d="M 13.8,16.4 12.2,18 c -1.2,1.2 -1,3.2 0.1,4.2 1.1,1.1 3.1,1 4.1,-0.1 L 18,20.5 c 0.3,-0.2 0.7,-1 0.7,-1 0.4,-1.1 0.2,-2.4 -0.7,-3.2"
           id="path4457" /></g><g
         id="g4459"><path
           style="fill:none;stroke:#818896;stroke-width:1.5;stroke-linecap:round;stroke-linejoin:round;stroke-miterlimit:10"
           class="st2"
           d="M 20.6,17.6 22.2,16 c 1.2,-1.2 1,-3.2 -0.1,-4.2 -1.1,-1 -3.1,-1 -4.1,0.1 l -1.6,1.6 c -0.3,0.2 -0.7,1 -0.7,1 -0.4,1.1 -0.2,2.4 0.7,3.2"
           id="path4461" /></g></g><g
       id="g4463"><g
         id="g4465"><path
           style="fill:none;stroke:#c7ced8;stroke-width:1.5;stroke-linecap:round;stroke-linejoin:round;stroke-miterlimit:10"
           class="st3"
           d="m 12.8,15.9 -1.6,1.6 c -1.2,1.2 -1,3.2 0.1,4.2 1.1,1.1 3.1,1 4.1,-0.1 L 17,20 c 0.3,-0.2 0.7,-1 0.7,-1 0.4,-1.1 0.2,-2.4 -0.7,-3.2"
           id="path4467" /></g><g
         id="g4469"><path
           style="fill:none;stroke:#c7ced8;stroke-width:1.5;stroke-linecap:round;stroke-linejoin:round;stroke-miterlimit:10"
           class="st3"
           d="m 19.7,17.1 1.6,-1.6 c 1.2,-1.2 1,-3.2 -0.1,-4.2 -1.1,-1.1 -3.1,-1 -4.1,0.1 L 15.5,13 c -0.3,0.2 -0.7,1 -0.7,1 -0.4,1.1 -0.2,2.4 0.7,3.2"
           id="path4471" /></g></g></g></svg>