<?xml version="1.0" encoding="utf-8"?>
<!-- Generator: Adobe Illustrator 19.2.1, SVG Export Plug-In . SVG Version: 6.00 Build 0)  -->
<svg version="1.1" id="Layer_1" xmlns="http://www.w3.org/2000/svg" xmlns:xlink="http://www.w3.org/1999/xlink" x="0px" y="0px"
	 viewBox="0 0 24 24" style="enable-background:new 0 0 24 24;" xml:space="preserve">
<style type="text/css">
	.st0{fill:none;stroke:#374E9B;stroke-linecap:round;stroke-miterlimit:10;}
	.st1{fill:#5E78E5;stroke:#253CAF;stroke-linecap:round;stroke-linejoin:round;stroke-miterlimit:10;}
	.st2{fill:#253CAF;stroke:#253CAF;stroke-linecap:round;stroke-linejoin:round;stroke-miterlimit:10;}
	.st3{fill:none;stroke:#374E9B;stroke-linecap:round;stroke-miterlimit:10;stroke-dasharray:2.5771,1.2026;}
	.st4{fill:none;stroke:#374E9B;stroke-linecap:round;stroke-miterlimit:10;stroke-dasharray:2.7483,1.2825;}
	.st5{fill:none;stroke:#374E9B;stroke-linecap:round;stroke-miterlimit:10;stroke-dasharray:3.1423,1.4664;}
</style>
<path class="st0" d="M1.2,22.6c0.3-0.1,3.7-1.3,3.9-3.3c0-0.7-0.3-1.7-0.8-1.8c-0.4-0.1-0.9,0.5-1.2,1c-0.5,1.1,0,2.6,1,3.3
	C5.2,22.7,6.6,22,9,21.8c1.5-0.1,3.7-0.1,6.5,0.8"/>
<g>
	<path class="st1" d="M29.5,7.1L25.3,2L14.9,16.9l-0.2,3.7c0.8,0.5,1.6,1,2.4,1.5c1.2-0.6,2.4-1.2,3.6-1.7
		C23.7,16,26.6,11.5,29.5,7.1z"/>
	<path class="st2" d="M16.1,22.7l1.1-0.6l-2.4-1.5l-0.1,1.3C14.7,22.6,15.4,23,16.1,22.7z"/>
</g>
<g>
	<g>
		<line class="st0" x1="1.3" y1="3.3" x2="2.8" y2="3.3"/>
		<line class="st3" x1="4" y1="3.3" x2="14.8" y2="3.3"/>
		<line class="st0" x1="15.4" y1="3.3" x2="16.9" y2="3.3"/>
	</g>
</g>
<g>
	<g>
		<line class="st0" x1="1.3" y1="7.3" x2="2.8" y2="7.3"/>
		<line class="st4" x1="4.1" y1="7.3" x2="15.6" y2="7.3"/>
		<line class="st0" x1="16.2" y1="7.3" x2="17.7" y2="7.3"/>
	</g>
</g>
<g>
	<g>
		<line class="st0" x1="1.3" y1="11.3" x2="2.8" y2="11.3"/>
		<line class="st5" x1="4.3" y1="11.3" x2="12.8" y2="11.3"/>
		<line class="st0" x1="13.5" y1="11.3" x2="15" y2="11.3"/>
	</g>
</g>
</svg>
