<?xml version="1.0" encoding="utf-8"?>
<!-- Generator: Adobe Illustrator 19.2.1, SVG Export Plug-In . SVG Version: 6.00 Build 0)  -->
<svg version="1.1" id="Layer_1" xmlns="http://www.w3.org/2000/svg" xmlns:xlink="http://www.w3.org/1999/xlink" x="0px" y="0px"
	 viewBox="0 0 24 24" style="enable-background:new 0 0 24 24;" xml:space="preserve">
<style type="text/css">
	.st0{fill:#7D8FF9;stroke:#253CAF;stroke-linecap:round;stroke-linejoin:round;stroke-miterlimit:10;}
	.st1{fill:#FFFFFF;stroke:#7D8FF9;stroke-miterlimit:10;}
</style>
<path class="st0" d="M10.1,15.5c1-0.8,1.7-2,1.7-3.4c0-2.4-2-4.4-4.4-4.4s-4.4,2-4.4,4.4c0,1.4,0.7,2.6,1.7,3.4c-2.4,1-4,3.4-4,6.2
	v1.8h13.5v-1.8C14.1,18.9,12.4,16.5,10.1,15.5z"/>
<path class="st1" d="M20.2,0.9h-6.9c-1.8,0-3.2,1.4-3.2,3v1.5c0,1.7,1.4,3,3.2,3h3.2c0,0.4,0,1-0.3,1.6c-0.6,0.9-1.7,1-1.7,1.1
	c0,0.2,2.6,0.6,4-1c0.6-0.6,0.8-1.3,0.8-1.6h0.9c1.8,0,3.2-1.4,3.2-3V3.9C23.4,2.2,22,0.9,20.2,0.9z"/>
</svg>
