<?xml version="1.0" encoding="utf-8"?>
<!-- Generator: Adobe Illustrator 19.2.1, SVG Export Plug-In . SVG Version: 6.00 Build 0)  -->
<svg version="1.1" id="Layer_1" xmlns="http://www.w3.org/2000/svg" xmlns:xlink="http://www.w3.org/1999/xlink" x="0px" y="0px"
	 viewBox="0 0 24 24" style="enable-background:new 0 0 24 24;" xml:space="preserve">
<style type="text/css">
	.st0{fill:#CCD9E6;stroke:#616C77;stroke-linejoin:round;stroke-miterlimit:10;}
	.st1{fill:#CCD9E6;fill-opacity:0;stroke:#616C77;stroke-linejoin:round;stroke-miterlimit:10;}
	.st2{fill:#FFE591;stroke:#9B7712;stroke-miterlimit:10;}
</style>
<g>
	<path id="path4172" inkscape:connector-curvature="0" sodipodi:nodetypes="cccc" class="st0" d="M18.1,18.3l0-13.9L1,4.7
		c0,0,0,13.6,0,13.6c0,1.9,3.8,3.4,8.6,3.4S18.1,20.2,18.1,18.3z"/>
	<path id="path4151-9_3_" class="st1" d="M18.1,14.1c0,1.9-3.8,3.4-8.6,3.4S1,16,1,14.1"/>
	<path id="path4151_3_" class="st0" d="M18.1,9c0,1.9-3.8,3.4-8.6,3.4S1,10.9,1,9"/>
	<ellipse id="path4151_1_" class="st0" cx="9.6" cy="4.4" rx="8.6" ry="3.4"/>
</g>
<rect x="11.4" y="14.1" class="st2" width="11.6" height="7.9"/>
<line class="st0" x1="13" y1="16.2" x2="18.4" y2="16.2"/>
<line class="st0" x1="13" y1="18.4" x2="16.3" y2="18.4"/>
</svg>
