<?xml version="1.0" encoding="utf-8"?>
<!-- Generator: Adobe Illustrator 19.2.1, SVG Export Plug-In . SVG Version: 6.00 Build 0)  -->
<svg version="1.1" id="Layer_1" xmlns="http://www.w3.org/2000/svg" xmlns:xlink="http://www.w3.org/1999/xlink" x="0px" y="0px"
	 viewBox="0 0 24 24" style="enable-background:new 0 0 24 24;" xml:space="preserve">
<style type="text/css">
	.st0{fill:#FFFFFF;stroke:#253CAF;stroke-linecap:round;stroke-linejoin:round;stroke-miterlimit:10;}
	.st1{fill:#7D8FF9;stroke:#253CAF;stroke-linecap:round;stroke-linejoin:round;stroke-miterlimit:10;}
	.st2{fill:none;stroke:#818896;stroke-width:1.5;stroke-linecap:round;stroke-linejoin:round;stroke-miterlimit:10;}
	.st3{fill:none;stroke:#C7CED8;stroke-width:1.5;stroke-linecap:round;stroke-linejoin:round;stroke-miterlimit:10;}
</style>
<path class="st0" d="M21.1,19.9c-1,1-1.9,2.1-2.9,3.1c-2.5-7.3-5.1-14.7-7.6-22h10.5C21.2,7.3,21.1,13.6,21.1,19.9z"/>
<path class="st1" d="M18.2,23H2.9V3.1c2.3,0,4.7,0,7,0c1.1,0,2.5,1,3.6,1c1.5,0,3.1,0,4.6,0C18.2,10.4,18.2,16.7,18.2,23z"/>
<path class="st0" d="M3.2,4C2.9,3.7,2.8,3.4,2.8,3.2c0-0.9,1.3-1.8,3.4-2.2h15l-3,3H3.2z"/>
<rect x="5" y="7.8" class="st0" width="11.1" height="3.5"/>
<g>
	<g>
		<path class="st2" d="M13.8,16.4L12.2,18c-1.2,1.2-1,3.2,0.1,4.2c1.1,1.1,3.1,1,4.1-0.1l1.6-1.6c0.3-0.2,0.7-1,0.7-1
			c0.4-1.1,0.2-2.4-0.7-3.2"/>
	</g>
	<g>
		<path class="st2" d="M20.6,17.6l1.6-1.6c1.2-1.2,1-3.2-0.1-4.2s-3.1-1-4.1,0.1l-1.6,1.6c-0.3,0.2-0.7,1-0.7,1
			c-0.4,1.1-0.2,2.4,0.7,3.2"/>
	</g>
</g>
<g>
	<g>
		<path class="st3" d="M12.8,15.9l-1.6,1.6c-1.2,1.2-1,3.2,0.1,4.2c1.1,1.1,3.1,1,4.1-0.1l1.6-1.6c0.3-0.2,0.7-1,0.7-1
			c0.4-1.1,0.2-2.4-0.7-3.2"/>
	</g>
	<g>
		<path class="st3" d="M19.7,17.1l1.6-1.6c1.2-1.2,1-3.2-0.1-4.2c-1.1-1.1-3.1-1-4.1,0.1L15.5,13c-0.3,0.2-0.7,1-0.7,1
			c-0.4,1.1-0.2,2.4,0.7,3.2"/>
	</g>
</g>
</svg>
