<?xml version="1.0" encoding="utf-8"?>
<!-- Generator: Adobe Illustrator 19.2.1, SVG Export Plug-In . SVG Version: 6.00 Build 0)  -->
<svg version="1.1" id="Layer_1" xmlns="http://www.w3.org/2000/svg" xmlns:xlink="http://www.w3.org/1999/xlink" x="0px" y="0px"
	 viewBox="0 0 24 24" style="enable-background:new 0 0 24 24;" xml:space="preserve">
<style type="text/css">
	.st0{fill:#00CC99;}
	.st1{fill:#FFFFFF;stroke:#84899F;stroke-linejoin:round;stroke-miterlimit:10;}
	.st2{fill:#D1D3E2;stroke:#84899F;stroke-miterlimit:10;}
	.st3{fill:#D1D3E2;}
</style>
<path class="st0" d="M4.8,8.6c1.3,4.5,2.6,9,3.8,13.4"/>
<g>
	<path class="st1" d="M5.3,3.4c0.2,0.8,0.3,1.7,0.5,2.5C4.6,6.4,3.3,6.8,2.1,7.3C1.7,11.4,1.4,15.6,1,19.8c0.1,0.1,0.3,0.1,0.6,0.1
		c0.6-0.1,1-0.9,1.3-2.3c0.6-2.3,0.6-4.7,1.3-6.7c0.1-0.2,0.2-0.7,0.7-1c0.5-0.3,1.1-0.3,1.6-0.2l1.6,9.4c0.3,1.9,1.9,3.3,3.7,3.3
		h5.2c1.8,0,3.4-1.4,3.7-3.3l2.6-15.7H5.3z"/>
	<ellipse class="st2" cx="14.2" cy="3.4" rx="8.9" ry="2.1"/>
</g>
<path class="st3" d="M21.2,6.5c-0.9,0.3-2,0.5-3.2,0.7c-1.4,0.2-2.6,0.3-3.7,0.4c0.1,4.4,0.3,8.9,0.4,13.3c0.3,0.1,1.9,0.4,3.3-0.5
	c0.5-0.4,0.9-0.8,1.1-1.1C19.8,15,20.5,10.7,21.2,6.5z"/>
</svg>
