<?xml version="1.0" encoding="utf-8"?>
<!-- Generator: Adobe Illustrator 19.2.1, SVG Export Plug-In . SVG Version: 6.00 Build 0)  -->
<svg version="1.1" id="Layer_1" xmlns="http://www.w3.org/2000/svg"  x="0px" y="0px"
	 viewBox="0 0 24 24" style="enable-background:new 0 0 24 24;" xml:space="preserve">
<style type="text/css">
	.st0{fill:#FFE591;stroke:#9B7712;stroke-miterlimit:10;}
	.st1{fill:#CCD9E6;stroke:#616C77;stroke-linejoin:round;stroke-miterlimit:10;}
</style>
<polygon class="st0" points="4.6,17.7 14.2,17.7 12.2,21.3 22.1,15.4 12.2,9.5 14.2,13.2 4.6,13.2 "/>
<path class="st1" d="M21.8,2.9H9.3v0C8.5,2,7.4,1.4,6.1,1.4c-2.3,0-4.2,1.9-4.2,4.2s1.9,4.2,4.2,4.2s4.2-1.9,4.2-4.2h4.8L16,9.5
	l2.3,0.6l-0.6-3.1l2,0l0.5,3.6l2.2,0.6L21.8,2.9z M6.1,6.8c-0.7,0-1.2-0.5-1.2-1.2c0-0.7,0.5-1.2,1.2-1.2c0.7,0,1.2,0.5,1.2,1.2
	C7.3,6.3,6.7,6.8,6.1,6.8z"/>
</svg>
