<?xml version="1.0" encoding="utf-8"?>
<!-- Generator: Adobe Illustrator 19.2.1, SVG Export Plug-In . SVG Version: 6.00 Build 0)  -->
<svg version="1.1" id="Layer_1" xmlns="http://www.w3.org/2000/svg"  x="0px" y="0px"
	 viewBox="0 0 24 24" style="enable-background:new 0 0 24 24;" xml:space="preserve">
<style type="text/css">
	.st0{fill:#9FB2E2;}
	.st1{fill:#5878BA;}
	.st2{fill:none;stroke:#FFFFFF;stroke-width:2;stroke-linecap:round;stroke-linejoin:round;stroke-miterlimit:10;}
</style>
<g>
	<path class="st0" d="M12,23C6,23,1,18.1,1,12S6,1.1,12,1.1S23,6,23,12S18,23,12,23z"/>
	<g>
		<path class="st1" d="M12,2.1c5.5,0,10,4.5,10,9.9S17.5,22,12,22S2,17.5,2,12S6.5,2.1,12,2.1 M12,0.1C5.4,0.1,0,5.4,0,12
			S5.4,24,12,24c6.6,0,12-5.3,12-11.9S18.6,0.1,12,0.1L12,0.1z"/>
	</g>
</g>
<path class="st2" d="M8.5,8.9c0.2-1.8,1.8-3.2,3.6-3.2c1.9,0,3.5,1.5,3.6,3.2c0.1,1.9-1.8,3.7-4.1,3.5c0,1.3,0,2.5,0,3.8"/>
<line class="st2" x1="11.6" y1="19.2" x2="11.6" y2="19.3"/>
</svg>
