<?xml version="1.0" encoding="utf-8"?>
<!-- Generator: Adobe Illustrator 19.2.1, SVG Export Plug-In . SVG Version: 6.00 Build 0)  -->
<svg version="1.1" id="Layer_1" xmlns="http://www.w3.org/2000/svg"  x="0px" y="0px"
	 viewBox="0 0 24 24" style="enable-background:new 0 0 24 24;" xml:space="preserve">
<style type="text/css">
	.st0{fill:#F9F4E8;stroke:#FFE591;stroke-miterlimit:10;}
	.st1{fill:#FCEDC5;stroke:#D8B452;stroke-miterlimit:10;}
	.st2{fill:#FFE591;stroke:#9B7712;stroke-miterlimit:10;}
	.st3{fill:#7AC2F9;}
	.st4{fill:#2F6791;}
</style>
<g>
	<rect x="1.2" y="13.8" class="st0" width="6.3" height="6.3"/>
	<rect x="7.5" y="13.8" class="st0" width="6.3" height="6.3"/>
	<rect x="13.8" y="13.8" class="st0" width="6.3" height="6.3"/>
</g>
<g>
	<rect x="1.2" y="7.4" class="st1" width="6.3" height="6.3"/>
	<rect x="7.5" y="7.4" class="st1" width="6.3" height="6.3"/>
	<rect x="13.8" y="7.4" class="st1" width="6.3" height="6.3"/>
</g>
<g>
	<rect x="1.2" y="1.2" class="st2" width="6.3" height="6.3"/>
	<rect x="7.5" y="1.2" class="st2" width="6.3" height="6.3"/>
	<rect x="13.8" y="1.2" class="st2" width="6.3" height="6.3"/>
</g>
<g>
	<path class="st3" d="M12.4,19.1C12.4,19.1,12.3,19.1,12.4,19.1c-3-0.6-5-3.2-4.8-6c0.1-1.9,1.4-3.7,3.1-4.6
		c-0.2-0.1-0.4-0.3-0.7-0.4C9.4,7.7,8.7,7.2,7.9,6.8C7.7,6.7,7.6,6.5,7.7,6.3C7.8,6,8,5.9,8.2,5.9h6.6c0.3,0,0.5,0.2,0.5,0.5V13
		c0,0.2-0.2,0.4-0.4,0.5c0,0-0.1,0-0.1,0c-0.2,0-0.3-0.1-0.4-0.3c-0.6-1.1-1.3-2.2-1.9-3.2c-1.5,0.5-2.5,1.8-2.7,3.2
		c-0.2,2,1.4,3.8,3.5,4.1c0.2,0,0.4,0.2,0.4,0.4c0.1,0.2,0,0.4-0.2,0.5l-0.8,0.7C12.7,19,12.5,19.1,12.4,19.1z"/>
	<path class="st4" d="M14.8,6.4V13c-0.7-1.2-1.4-2.4-2.1-3.6c-1.9,0.5-3.2,2-3.4,3.8c-0.2,2.2,1.5,4.3,3.9,4.7
		c-0.3,0.2-0.5,0.5-0.8,0.7c-2.7-0.5-4.5-3-4.3-5.5c0.2-2.1,1.7-3.9,3.7-4.5c-1.2-0.7-2.4-1.5-3.6-2.2H14.8 M14.8,5.4H8.2
		c-0.5,0-0.9,0.3-1,0.7C7.1,6.6,7.3,7,7.7,7.3c0.7,0.4,1.4,0.8,2.1,1.2C8.3,9.5,7.3,11.2,7.1,13c-0.2,3.1,2,5.9,5.1,6.6
		c0.1,0,0.1,0,0.2,0c0.2,0,0.5-0.1,0.7-0.2l0.4-0.4l0.4-0.4c0.3-0.3,0.4-0.7,0.3-1c-0.1-0.4-0.4-0.7-0.8-0.7
		c-1.9-0.3-3.2-1.9-3.1-3.6c0.1-1.1,0.9-2.1,2-2.6c0.6,1,1.1,1.9,1.7,2.9c0.2,0.3,0.5,0.5,0.9,0.5c0.1,0,0.2,0,0.3,0
		c0.4-0.1,0.7-0.5,0.7-1V6.4C15.8,5.8,15.3,5.4,14.8,5.4L14.8,5.4z"/>
</g>
<g>
	<path class="st3" d="M15.8,23.1c-0.3,0-0.5-0.2-0.5-0.5V16c0-0.2,0.2-0.4,0.4-0.5c0,0,0.1,0,0.1,0c0.2,0,0.3,0.1,0.4,0.3
		c0.6,1.1,1.3,2.2,1.9,3.2c1.5-0.5,2.5-1.8,2.7-3.2c0.2-2-1.4-3.8-3.5-4.1c-0.2,0-0.4-0.2-0.4-0.4c-0.1-0.2,0-0.4,0.2-0.5l0.8-0.7
		c0.1-0.1,0.2-0.1,0.3-0.1c0,0,0.1,0,0.1,0c2.9,0.6,4.9,3.2,4.7,6c-0.1,1.9-1.4,3.7-3.1,4.6c0.2,0.1,0.4,0.3,0.7,0.4
		c0.7,0.4,1.4,0.9,2.1,1.3c0.2,0.1,0.3,0.3,0.2,0.6c-0.1,0.2-0.3,0.4-0.5,0.4H15.8z"/>
	<path class="st4" d="M18.2,10.4c2.7,0.5,4.5,3,4.3,5.5c-0.2,2.1-1.7,3.9-3.7,4.5c1.2,0.7,2.4,1.5,3.6,2.2h-6.6V16
		c0.7,1.2,1.4,2.4,2.1,3.6c1.9-0.5,3.2-2,3.4-3.8c0.2-2.2-1.5-4.3-3.9-4.7C17.6,10.9,17.9,10.6,18.2,10.4 M18.2,9.4
		c-0.2,0-0.5,0.1-0.7,0.2L17.1,10l-0.4,0.4c-0.3,0.3-0.4,0.7-0.3,1c0.1,0.4,0.4,0.7,0.8,0.7c1.9,0.3,3.2,1.9,3.1,3.6
		c-0.1,1.1-0.9,2.1-2,2.6c-0.6-1-1.1-1.9-1.7-2.9c-0.2-0.3-0.5-0.5-0.9-0.5c-0.1,0-0.2,0-0.3,0c-0.4,0.1-0.7,0.5-0.7,1v6.6
		c0,0.6,0.4,1,1,1h6.6c0.5,0,0.9-0.3,1-0.7c0.1-0.4-0.1-0.9-0.5-1.1c-0.7-0.4-1.4-0.8-2.1-1.2c1.5-1.1,2.5-2.7,2.6-4.5
		c0.2-3.1-2-5.9-5.1-6.6C18.3,9.4,18.2,9.4,18.2,9.4L18.2,9.4z"/>
</g>
</svg>
