<?xml version="1.0" encoding="utf-8"?>
<!-- Generator: Adobe Illustrator 19.2.1, SVG Export Plug-In . SVG Version: 6.00 Build 0)  -->
<svg version="1.1" id="Layer_1" xmlns="http://www.w3.org/2000/svg" xmlns:xlink="http://www.w3.org/1999/xlink" x="0px" y="0px"
	 viewBox="0 0 24 24" style="enable-background:new 0 0 24 24;" xml:space="preserve">
<style type="text/css">
	.st0{fill:#FCFCFC;stroke:#637078;stroke-linecap:round;stroke-linejoin:round;stroke-miterlimit:10;}
	.st1{fill:#D1D3E2;stroke:#637078;stroke-linecap:round;stroke-linejoin:round;stroke-miterlimit:10;}
	.st2{fill:#00CC99;}
	.st3{fill:#FFFFFF;stroke:#84899F;stroke-linejoin:round;stroke-miterlimit:10;}
	.st4{fill:#D1D3E2;stroke:#84899F;stroke-miterlimit:10;}
	.st5{fill:#D1D3E2;}
</style>
<g>
	<polygon class="st0" points="14,1.2 1.6,1.2 1.6,22.3 17.3,22.3 17.3,4.5 14,4.5 	"/>
	<polygon class="st1" points="14,4.5 17.3,4.5 14,1.2 	"/>
</g>
<path class="st2" d="M12.9,9.8c0.7,2.5,1.4,4.9,2.1,7.4"/>
<g>
	<g>
		<path class="st3" d="M10.4,9.5c0.1,0.6,0.2,1.2,0.3,1.8C9.9,11.6,9,12,8.2,12.3c-0.3,3-0.5,5.9-0.8,8.9c0.1,0,0.2,0.1,0.4,0.1
			c0.4-0.1,0.7-0.7,0.9-1.6c0.4-1.7,0.4-3.3,0.9-4.7c0.1-0.2,0.2-0.5,0.5-0.7c0.3-0.2,0.8-0.2,1.1-0.2l1.1,6.7
			c0.2,1.4,1.3,2.3,2.6,2.3h3.7c1.3,0,2.4-1,2.6-2.3L23,9.5H10.4z"/>
		<ellipse class="st4" cx="16.7" cy="9.5" rx="6.3" ry="1.5"/>
	</g>
	<path class="st5" d="M21.7,11.7c-0.7,0.2-1.4,0.4-2.2,0.5c-1,0.2-1.8,0.2-2.6,0.3c0.1,3.1,0.2,6.3,0.3,9.4c0.2,0.1,1.3,0.3,2.3-0.3
		c0.4-0.2,0.6-0.5,0.8-0.8C20.6,17.8,21.2,14.7,21.7,11.7z"/>
</g>
</svg>
