<?xml version="1.0" encoding="utf-8"?>
<!-- Generator: Adobe Illustrator 19.2.1, SVG Export Plug-In . SVG Version: 6.00 Build 0)  -->
<svg version="1.1" id="Layer_1" xmlns="http://www.w3.org/2000/svg"  x="0px" y="0px"
	 viewBox="0 0 24 24" style="enable-background:new 0 0 24 24;" xml:space="preserve">
<style type="text/css">
	.st0{fill:#E7EEFA;stroke:#7E98B7;stroke-miterlimit:10;}
	.st1{fill:#FFE591;stroke:#9B782C;stroke-miterlimit:10;}
	.st2{fill:#00CC99;stroke:#128463;stroke-miterlimit:10;}
	.st3{fill:none;stroke:#128463;stroke-miterlimit:10;stroke-dasharray:3,3;}
</style>
<rect x="0.7" y="0.6" class="st0" width="22.3" height="22.7"/>
<line class="st0" x1="2.6" y1="0.6" x2="21" y2="0.6"/>
<line class="st0" x1="6.2" y1="0.6" x2="6.2" y2="23.3"/>
<line class="st0" x1="0.7" y1="0.6" x2="23" y2="0.6"/>
<line class="st0" x1="0.7" y1="5.6" x2="23" y2="5.6"/>
<line class="st0" x1="0.7" y1="9.2" x2="23" y2="9.2"/>
<line class="st0" x1="0.7" y1="12.7" x2="23" y2="12.7"/>
<line class="st0" x1="0.7" y1="16.3" x2="23" y2="16.3"/>
<line class="st0" x1="0.7" y1="19.9" x2="23" y2="19.9"/>
<path class="st1" d="M18.6,11.3c0.6-0.4,1.3-0.3,1.6,0.3c0.4,0.6,0.3,1.3-0.3,1.6s-1.3,0.3-1.6-0.3S18.1,11.6,18.6,11.3z M7.8,23.1
	l10.3-6.9l0,0c1.2,0.3,2.4,0.2,3.5-0.5c1.9-1.3,2.4-3.9,1.1-5.8s-3.9-2.4-5.8-1.1s-2.4,3.9-1.1,5.8l-3.9,2.6l-2.9-2.7l-2.2,0.8
	l2.2,2.2l-1.6,1.1l-2.4-2.7l-2.1,0.7L7.8,23.1z"/>
<path class="st2" d="M2.9,3.1"/>
<line class="st3" x1="1.9" y1="3.1" x2="18.9" y2="3.1"/>
</svg>
